PathFileType	4	(X/Y/Z)	pose_F01_0-89.trc
DataRate	CameraRate	NumFrames	NumMarkers	Units	OrigDataRate	OrigDataStartFrame	OrigNumFrames
30	30	6	21	m	30	76	89
Frame#	Time	CHip			RHip			RKnee			RAnkle			RBigToe			RSmallToe			RHeel			LHip			LKnee			LAnkle			LBigToe			LSmallToe			LHeel			Neck			Nose			RShoulder			RElbow			RWrist			LShoulder			LElbow			LWrist			
		X1	Y1	Z1	X2	Y2	Z2	X3	Y3	Z3	X4	Y4	Z4	X5	Y5	Z5	X6	Y6	Z6	X7	Y7	Z7	X8	Y8	Z8	X9	Y9	Z9	X10	Y10	Z10	X11	Y11	Z11	X12	Y12	Z12	X13	Y13	Z13	X14	Y14	Z14	X15	Y15	Z15	X16	Y16	Z16	X17	Y17	Z17	X18	Y18	Z18	X19	Y19	Z19	X20	Y20	Z20	X21	Y21	Z21	
76	2.533333333333333	-0.21642656791839807	1.8772423063944226	-0.5887576026268967	-0.23700007662683226	1.8730991507995634	-0.5360300329884079	-0.2225342782186142	1.7203820743972311	-0.5037738232970569													-0.19588538733108063	1.8792437232469594	-0.6442792914094427	-0.20159393864930955	1.720656971570957	-0.6304730954489212	-0.20406677721875124	1.5566836155018402	-0.6112437210061065	-0.2430568215869382	1.5149033522510504	-0.6515849764754607	-0.22720924324977984	1.5184247908324986	-0.6675333208654266	-0.19677022590211124	1.5444269478869679	-0.5879720377693679	-0.21916147238090464	2.050984149311083	-0.608683730739098	-0.2383079077025315	2.1354290936598423	-0.645588571700632	-0.24707112459372832	2.0486553414045927	-0.5388864618453474	-0.24565901031391718	1.9531943560558886	-0.5022846368374059	-0.2591159167237356	1.873120477901802	-0.48238317720679136	-0.18638073421147985	2.0556779145609365	-0.6791431098205255	-0.20288182251039782	2.0311732885297973	-0.7735985833986044	-0.22535368505037714	2.0993206508318014	-0.7468038525084363
77	2.566666666666667	-0.2164380474298538	1.8744030075672014	-0.5884275161129953	-0.2350687795883566	1.873113032360871	-0.529669178723527	-0.22188785915916426	1.7167166807610457	-0.49990759937145574													-0.19659990702556163	1.8770935730602825	-0.6472931678520029	-0.20344176676753647	1.7158067400478578	-0.6241006147954463	-0.2042772616313665	1.5549669344596913	-0.6106534706471589	-0.24405253851989006	1.5135994945248998	-0.6464799722444025	-0.227281256835708	1.5185256744807425	-0.6674303074075838	-0.19789227665342096	1.543100672314406	-0.590251963839434	-0.21716132322407564	2.048373074456595	-0.6105272112553077	-0.24540890008461394	2.131079348272236	-0.6496290614731426	-0.24420835843614805	2.0480261707002003	-0.5295735237913739	-0.2449522909038196	1.9548822263521628	-0.49991821298586764	-0.2594410050435102	1.8771302466710553	-0.48324529327957394	-0.18295751477553893	2.0518543820726327	-0.685891804896127	-0.1978038688957468	2.011988325143126	-0.7718099589409018	-0.23495801046437714	2.081900529655158	-0.7494732271956045
78	2.6	-0.21471492592213948	1.875483815974383	-0.5821832913018683	-0.23308780711163382	1.8725805688800226	-0.5231647690343351	-0.22179478186576776	1.7162549098555493	-0.49993807746348223													-0.19518948981539158	1.877388252867778	-0.6409770928984184	-0.20190740585994033	1.7143534562679494	-0.6254927421287308	-0.20425925614810325	1.5548223334280846	-0.6106407470390544	-0.24506772141978386	1.513511404106464	-0.6495894332386816	-0.22975845286795052	1.5169554741393991	-0.6646862721688369	-0.1949140809982624	1.5406862598821796	-0.5889709051531914	-0.2170608501045156	2.048662488403802	-0.6105784140463661	-0.24864731162625858	2.126232423132483	-0.6497445642471229	-0.2442058433584327	2.0491833443612237	-0.5300013998723281	-0.24193556401469754	1.9537246552982588	-0.4984071477215175	-0.25726846383795016	1.87571758891557	-0.4764237812598168	-0.18298220846505794	2.0512650359571545	-0.6860418188077549	-0.19272591528109578	1.9928033617564542	-0.7700213344831991	-0.2445623358783771	2.0644804084785147	-0.7521426018827726
79	2.6333333333333333	-0.21628285160415903	1.8783850382898606	-0.5888598476638562	-0.2349915092577761	1.8757672084063977	-0.5299271796101103	-0.22296943064791364	1.7175912517126584	-0.5029885660823171													-0.19854395417272525	1.880932276133201	-0.6455895788168978	-0.2015480262039657	1.7172077447552445	-0.6261895615078682	-0.20407434307555303	1.5563691520667875	-0.6111612009537198	-0.24288324207805376	1.5136957297136209	-0.6518500708842039	-0.22727548365057795	1.5184628922104988	-0.6674910008127637	-0.1999321467781525	1.5453176422881776	-0.5886193399452124	-0.21703209682302874	2.0470754533937767	-0.6100526621511102	-0.252001400398935	2.123197274800323	-0.6508203932592297	-0.2432818722823198	2.0463969221416614	-0.5264329979541976	-0.24285856720946447	1.950719814627969	-0.49266211723993475	-0.25791267844160154	1.868030697269075	-0.47829670557759013	-0.1829070757438123	2.0506517287526647	-0.6856646046413063	-0.1996938791268251	1.9969858781465029	-0.7557609989522823	-0.2541666612923771	2.047060287301871	-0.7548119765699407
80	2.6666666666666665	-0.21675304476021645	1.8768373786147357	-0.5887756015125624	-0.23543519814374667	1.87426424999114	-0.5298858981663471	-0.22335395048936632	1.7145489388804123	-0.502286634464971													-0.19900781112524327	1.8798386998313632	-0.6454624343119993	-0.20320666551685287	1.7120834390054789	-0.6278350661175984	-0.20443581373447714	1.555829570242808	-0.6106025662303949	-0.24181351012781202	1.5137117798507	-0.6487011163812052	-0.22506361328511565	1.5185654382544398	-0.6696069984827948	-0.19700497334534128	1.5457912589287781	-0.5876137465263802	-0.21703107322392468	2.046724674178265	-0.6100624755896485	-0.25415551269980097	2.1198257329155243	-0.6476640015402152	-0.24120717317466728	2.0475226041360624	-0.5284371902837974	-0.2399565751921563	1.9490800611412202	-0.4912352111437467	-0.25501212844954985	1.8649880180496359	-0.47676448637197943	-0.18509716037160606	2.049885583199944	-0.6834501817901707	-0.19924502255841683	1.9845741696994625	-0.7515564290736022	-0.2637709867063771	2.0296401661252275	-0.7574813512571088
81	2.7	-0.21881707839613954	1.874132794127823	-0.5861827678247438	-0.23449144786639198	1.8715009197401944	-0.5262376822630519	-0.2235050454837926	1.713002213853242	-0.5019276968003034													-0.19930718127340946	1.875890119382306	-0.6449129850193832	-0.20241658408721688	1.7117975390913578	-0.6247019415217574	-0.20648496640530797	1.5550465498543007	-0.6083687840479964	-0.2450012088765007	1.513501075041488	-0.6496597660579007	-0.22734372797346714	1.5186047202444697	-0.6673853025454238	-0.20008548287690645	1.5433882763814417	-0.5879818776979671	-0.21519624785448765	2.045148599631026	-0.6036086290478755	-0.2552569139205176	2.117963243983063	-0.6423418860326209	-0.23815553479002105	2.045177269527418	-0.5264474400522776	-0.23678214153466573	1.9499932755084555	-0.4902044518901403	-0.25476793519518093	1.8673506094446117	-0.4769482242114937	-0.18528437363448683	2.0482851202357155	-0.6835333161661938	-0.19987522207505432	1.981211989481484	-0.7425359823916899	-0.2733753121203771	2.012220044948584	-0.760150725944277
